<?xml version="1.0" encoding="utf-8"?>
<!-- Svg Vector Icons : http://www.onlinewebfonts.com/icon -->
<!DOCTYPE svg PUBLIC "-//W3C//DTD SVG 1.1//EN" "http://www.w3.org/Graphics/SVG/1.1/DTD/svg11.dtd">
<svg version="1.1" xmlns="http://www.w3.org/2000/svg" xmlns:xlink="http://www.w3.org/1999/xlink" x="0px" y="0px" viewBox="0 0 1000 1000" enable-background="new 0 0 1000 1000" xml:space="preserve" fill="white">
<metadata> Svg Vector Icons : http://www.onlinewebfonts.com/icon </metadata>
<g><path d="M500,10.1c-270.6,0-490,219.4-490,490c0,270.6,219.4,489.7,490,489.7c270.6,0,490-219.4,490-490C990,229.3,770.6,10.1,500,10.1z M244.4,340c7.9-32.3,32.9-62,76.1-60.2c0-9.7,0-19.1,0-28.2c0-7.6,0-15,0-22.6c0.3-12.6,7.6-20,20.6-20.3c0.3,0,0.9,0,1.2,0c104,0,208,0,312,0c1.5,0,2.6,0,4.1,0c10.9,1.2,17.3,8.5,17.6,19.4c0,17,0,34.1,0,50.5c9.1,1.5,18.2,1.8,26.4,4.4c28.8,8.8,44.4,30,52.6,57.9c12.9,45.8-6.2,102.8-43.5,131c-15,11.2-31.4,17-50.2,16.5c-1.2,0-3.2,1.2-3.8,2.6c-12.6,25-29.7,46.7-51.1,64.6c-25.3,21.1-54.3,34.4-87,37.6c-67.9,7.1-120.4-20.3-160.1-74.3c-6.8-9.1-11.8-19.1-17.6-28.8c-0.9-1.2-2.6-2.6-3.8-2.6c-34.4,0.3-58.2-18.2-76.1-45.2C240.9,411.4,235.3,376.8,244.4,340z M391.3,774.2c-0.6-3.8-0.3-7.9,0.9-11.8c4.4-17,9.1-34.4,14.1-51.4c2.9-10,10-15.3,20.6-15.3c13.5,0,27,0,41.1,0c0-24.4,0-47.9,0-70.8c21.7,0,43.2,0,65.2,0c0,22.9,0,46.7,0,71.4c5.6,0,10.6,0,15.9,0c9.7,0,19.4,0,29.1,0.6c8.2,0.6,13.8,5.6,16.2,13.5c5.3,18.5,10.6,37,15.6,55.8c3.2,12-6.2,22.9-20,23.5c-7.6,0.3-15.6,0-23.2,0c-50.8,0-101.9,0-152.8,0C401.3,789.8,393.4,784.5,391.3,774.2z"/><path d="M533.8,349.2c-4.4,0-6.2-1.5-7.6-5.6c-6.2-17.9-12.3-35.8-18.8-53.8c-1.2-2.9-4.1-6.5-6.8-7.1c-4.1-1.2-5.6,3.2-6.8,6.8c-6.2,17.6-12.6,35.3-18.5,53.2c-1.5,4.7-3.8,6.2-8.8,6.2c-19.1,0-38.5,0.6-57.6,0.9c-4.7,0-8.2,1.5-7.3,6.8c0.3,2.1,2.4,4.4,4.4,5.9c15.3,11.8,30.8,23.5,46.4,35c3.2,2.4,4.1,4.4,2.6,8.2c-3.5,10.3-6.5,20.9-9.7,31.1c-2.9,9.4-5.6,18.5-8.8,28.8c0.9,1.5,2.1,4.4,3.8,4.7c2.4,0.6,5.6,0.3,7.6-1.2c16.5-10.9,32.9-22.3,48.8-33.8c3.5-2.6,5.9-2.3,9.4,0c15.6,11.2,31.4,22,47.3,32.6c2.4,1.5,6.5,2.3,8.8,1.5c4.1-1.8,2.6-5.9,1.5-9.4c-5.9-18.5-11.7-36.7-17.9-55.2c-1.2-3.2-0.6-5,2.3-7.3c15.9-11.5,31.4-23.5,47-35.5c2.3-1.8,2.9-5.3,4.4-7.9c-2.6-1.5-5.6-4.1-8.2-4.1C572.6,349.7,553.2,349.2,533.8,349.2z"/><path d="M707.7,320.4c-8.2-7.1-17.6-10-29.1-7.1c0,12,0,23.5,0,35c-0.3,25.3-0.3,50.5-1.5,75.8c-0.3,10.6-3.2,20.9-5,31.7c9.7-1.8,17.9-6.8,25-13.5c23.8-22.9,33.5-51.1,29.7-83.7C724.7,343.9,719.4,330.4,707.7,320.4z"/><path d="M322.9,319.2c0-2.1,0-4.4,0-6.5c-2.4-0.3-4.1-0.6-5.9-0.9c-1.2,0-2.3,0-3.5,0c-16.7,1.5-26.4,12-32.9,26.1c-13.8,31.1-5,76.1,19.7,100.8c8.2,8.2,17.3,14.7,30.3,17.3c-7-20.9-7.9-41.4-7.6-62C322.9,369.1,322.9,344.2,322.9,319.2z"/></g>
</svg>